<svg id="Layer_1" data-name="Layer 1" xmlns="http://www.w3.org/2000/svg" viewBox="0 0 661.48 376.49"><defs><style>.cls-1{fill:#e0e0e0;}.cls-2{fill:#fff;}.cls-3{fill:#4d3530;}.cls-4{fill:#af8b69;}.cls-5{fill:#fc9c34;}.cls-6{fill:#80868b;}.cls-7{fill:#b7bfc4;}.cls-8{fill:#28a745;}.cls-9{fill:#dc3545;}</style></defs><rect class="cls-1" x="59.68" width="554.84" height="339.73" rx="12"/><rect class="cls-2" x="81.56" y="18.55" width="168.03" height="168.03" rx="12"/><path class="cls-3" d="M7005.71,7136.74c-25.27-14.74-33.47-41.64-21-68.06,5.25-11.1,16.08-14.74,25.67-20.12,18.92-7.38,38.06-4.48,57.25-1.4,6,1,4.89,5.54,5.56,9.35l-2.82,7.63c-2.77,6-8.65,6.42-14,7.59-18.49,4.08-24.32,13.93-18.41,32,1.72,5.27,3,10.73,5.71,15.64,4.68,8.53,8.72,10.16,17.95,7.53a51.63,51.63,0,0,0,14.4-6.3c3.09-2,6.23-4.68,10.45-2.76,7.88,4,2.52,8.23.23,12.41-1.31,4-6.78,4.83-7.31,9.46,1.18,2.78,4.87,2.17,6.13,4.71,2,13.5.21,15.75-13.26,15.79-12.12,0-24.11-.77-34.18-8.82-4.09-1.74-4.68-5.75-5.92-9.28-3.94-11.13-5.38-22.84-7.87-34.31-.59-2.75-.24-5.93-2.83-7.92-8.11,3.28-9.81,7.08-7.22,15.74C7017.21,7125.37,7015,7130.71,7005.71,7136.74Z" transform="translate(-6869.26 -7009.61)"/><path class="cls-4" d="M7045,7180.13c-6.78.93-13.41-.49-20.07-1.35l-23.11-3.71q1-10.9,2.13-22.11.86-8.19,1.81-16.22c2-2.89,3.75-5.91,5.92-8.63,2.89-3.6,3.15-6.67.85-11-5.41-10.34-.45-18.68,12-20.29,4,18.32,5.81,37.28,13.72,54.66C7038.58,7161.43,7043.07,7170.47,7045,7180.13Z" transform="translate(-6869.26 -7009.61)"/><path class="cls-4" d="M7086.54,7117.88c-8.52,3.18-15.86,8.69-24.63,11.6-9.05,3-15,.28-19.08-7.39a88.53,88.53,0,0,1-9.8-30.89c-.93-7.48,9-18.79,17.51-20.46,6.92-1.36,13.95-2.24,19.86-6.6C7081.53,7080.33,7085.28,7098.73,7086.54,7117.88Z" transform="translate(-6869.26 -7009.61)"/><path class="cls-4" d="M7085.59,7144.46c-2.82-1.79-6.5.36-9.56-2.22-.14-7.22,5.94-9,10.74-11.95C7087.72,7135.13,7086.58,7139.79,7085.59,7144.46Z" transform="translate(-6869.26 -7009.61)"/><rect class="cls-5" x="274.79" y="34.66" width="196.73" height="42.01" rx="12"/><rect class="cls-6" x="274.79" y="87.16" width="249.94" height="30.81" rx="12"/><rect class="cls-7" x="273.49" y="157.88" width="320.21" height="29.89" rx="12"/><rect class="cls-7" x="80.51" y="201.36" width="513.19" height="29.89" rx="12"/><rect class="cls-7" x="80.51" y="244.83" width="513.19" height="29.89" rx="12"/><rect class="cls-7" x="80.51" y="288.31" width="513.19" height="29.89" rx="12"/><circle class="cls-8" cx="583.38" cy="298.38" r="78.11"/><path class="cls-2" d="M7441.67,7342.32h-1.08c-1.7-.35-2.83-1.52-4-2.69q-13.62-13.66-27.28-27.28c-1.17-1.17-2.34-2.3-2.69-4v-1.08a7.67,7.67,0,0,1,2.61-4c1.66-1.6,3.27-3.26,4.91-4.89,2.38-2.36,4.92-2.38,7.29,0q9.46,9.45,18.93,18.94a7.75,7.75,0,0,1,.74,1.11,11.56,11.56,0,0,1,.87-1.14q20.55-20.57,41.1-41.13a7.77,7.77,0,0,1,3.9-2.54h1.08a7.84,7.84,0,0,1,3.92,2.62q2,2,4,4a8,8,0,0,1,2.69,4v1.08a7.71,7.71,0,0,1-2.55,3.89q-25.26,25.22-50.48,50.48A7.94,7.94,0,0,1,7441.67,7342.32Z" transform="translate(-6869.26 -7009.61)"/><circle class="cls-9" cx="78.11" cy="298.38" r="78.11"/><path class="cls-2" d="M6922.69,7346.82h-2.77a3.42,3.42,0,0,0-.62-.27,8.88,8.88,0,0,1-4.62-14.76c2.44-2.76,4.85-5.53,7.28-8.3l13.51-15.47c-.33-.42-.61-.78-.91-1.12l-19.87-22.71a8.67,8.67,0,0,1-1.83-9.13c1.17-3.36,3.79-5,7.06-5.9h2.77c1.71,1,3.74,1.64,5.06,3,3.48,3.58,6.65,7.47,9.95,11.23l9.67,11c6.11-7,12.15-13.76,18-20.66a13.24,13.24,0,0,1,6.64-4.61h2.76a3.76,3.76,0,0,0,.62.27,8.87,8.87,0,0,1,4.62,14.76l-7.27,8.3L6959.26,7308c.34.41.61.78.92,1.12l19.87,22.71a8.71,8.71,0,0,1,1.83,9.13c-1.18,3.36-3.79,5-7.07,5.9h-2.76c-1.75-1-3.82-1.73-5.18-3.13-3.52-3.63-6.73-7.56-10.06-11.37-3.12-3.57-6.25-7.13-9.45-10.77-6.07,6.93-12.06,13.68-17.93,20.53C6927.55,7344.27,6925.53,7346.09,6922.69,7346.82Z" transform="translate(-6869.26 -7009.61)"/></svg>