<svg xmlns="http://www.w3.org/2000/svg" id="Layer_1" data-name="Layer 1" viewBox="0 0 1080 651.55"><defs><style>.cls-1,.cls-2,.cls-25{fill:#fc9c34}.cls-1{opacity:.22}.cls-3{fill:#80868b}.cls-4{fill:#3b4082}.cls-5{fill:#dd852f}.cls-6{fill:#1b1a48}.cls-7{fill:#4c342f}.cls-8{fill:#b28b68}.cls-9{fill:#d3d3d3}.cls-10{fill:#b28c69}.cls-11{fill:#af8967}.cls-12{fill:#b28c6a}.cls-13{fill:#fefcf9}.cls-14{fill:#faf5f2}.cls-15{fill:#f9f9fa}.cls-16{fill:#b38d6b}.cls-17{fill:#393f82}.cls-18{fill:#1a1948}.cls-19{fill:#4d352f}.cls-20{fill:#b48e6b}.cls-21{fill:#b18a67}.cls-22{fill:#a6856a}.cls-23{fill:#283789}.cls-24{fill:none;stroke:#fc9c34;stroke-linecap:round;stroke-miterlimit:10;stroke-width:2px}.cls-25{opacity:.39}.cls-26{fill:#fff}</style></defs><path d="M1105,835.2c33.48-49,42.65-89.93,48.16-117,6.67-32.79,24.29-119.41-17.6-182-13.94-20.82-16.79-12.58-63-62-34.36-36.77-51.54-55.15-64.82-82-22.6-45.67-9.49-60.81-29.64-101-24.16-48.19-65.42-71.08-81.49-80-52.83-29.31-102.54-25.92-160.21-22-69.91,4.76-75.32,19.54-151,23-63.49,2.91-63.44-7.33-100,0-13.06,2.62-89.64,19.29-140.77,89-32.84,44.78-17.61,60.23-55.56,122-29.64,48.24-43.09,45.61-88,103-47.67,60.95-79.39,101.51-83.34,156-5,68.23,36.07,124.66,61.12,153Z" class="cls-1" transform="translate(-100 -186.65)"/><path d="M308.49,699.59c-.14-1,0-2.16-.45-2.92-7.34-11.41-4.07-23.31-1.64-35.14,6.75-32.74,18.66-63.15,40.43-89.06a145.6,145.6,0,0,1,27.3-25.24c2.16-1.54,3.87-3.16,3.73-6-.27-5.49,2.73-6.88,7.55-6.3a47.18,47.18,0,0,0,5.45,0c2.15,1.18,4.5.84,6.8,1,5.41.41,10.92-.8,16.23,1.07,2.22,1.95,2.25,4.47,2.22,7.2-.07,6.23-1.67,12.53.78,18.66-1.5,1.32-1,3.1-.92,4.67,1.11,21.21,7.79,40.76,17.69,59.36,3.1,5.82,6.85,11.3,9.19,17.51a50.67,50.67,0,0,1,4.44,15.13c-.12,7.43-2.33,13.94-7.93,19.15A69.27,69.27,0,0,1,427.09,688c-16.44,9.55-34,15.28-53.17,15.65l-11.08-2.1c-7.71-3.57-10.19-10.77-12.52-18.07-2-6.13-2.08-12.62-3.65-18.9-2.4,6.61-4.54,13.19-6.4,19.85a23,23,0,0,1-9.59,13.37c-1.62,1.09-3.07,2.45-4.59,3.68-1.3.6-1.83,2.52-3.69,2.16Z" class="cls-2" transform="translate(-100 -186.65)"/><path d="M322.4,703.62c1.86.36,2.39-1.56,3.69-2.16l36.75.07,11.08,2.1c1.78,2.51,4.36,4,6.95,5.51,7.56,4.27,15.82,5.59,24.4,5.58,16.25,0,32.38-1.88,48.56-3-.37.51-1.14,1.34-1,1.48,2.59,3.32,1.95,7.2,2,10.93.05,10.45,0,20.9,0,31.34-2.71,6.72-5.15,13.56-8.25,20.1-1.71,3.62-.89,5.28,2.6,6.3l-3.47,9.47c-5.28-.58-7.11,3.67-9.16,7.05-3.55,5.87-3,6.49,2.9,10.19,5.14,3.21,11,5.23,15.4,9.65a18.62,18.62,0,0,1-2.53,11c-2.95,5-6.85,8-13.18,8-43-.14-86-.07-129-.07-10.15,0-16.72-6.47-16.73-16.68,0-27.57,0-55.15,0-82.73,0-2-.06-4-.09-6,4.61-.5,8.33-3,12.2-5.26,7.46-4.31,7.92-4.22,14.69,1.13,1.31,1,2.87,2.43,4.43,1.36,1.84-1.28.31-3.05-.36-4.43C321,717.77,318.75,711,322.4,703.62Zm51.88,103.59q21.41,0,42.83,0c6,0,6.82-.83,6.82-7q0-30.4,0-60.81c0-5.79-1.11-6.94-7-6.94-28.72,0-57.44,0-86.16-.07-4.64,0-6.59,1.62-6.56,6.4.14,20.6,0,41.2.07,61.8,0,5.75.89,6.61,6.7,6.62Q352.61,807.24,374.28,807.21Z" class="cls-3" transform="translate(-100 -186.65)"/><path d="M453.82,711.68c-16.17,1.16-32.3,3-48.55,3-8.58,0-16.84-1.31-24.4-5.58-2.59-1.46-5.17-3-6.95-5.51,19.15-.37,36.73-6.1,53.17-15.65a69.27,69.27,0,0,0,12.27-9.23c5.6-5.21,7.81-11.72,7.93-19.15l13,2.07c3.95,3.26,7.89,6.54,11.85,9.78a16.53,16.53,0,0,0,12.95,3.81c3.13-.42,6.24-.46,9.36-.65,5.91,3,8.85,8.66,12.47,13.73a54.43,54.43,0,0,0,4.06,5c.84.92,1.74,2.43,3.23,1.74,1.73-.82,1.24-2.47.76-3.94-1.3-3.91.88-4.83,4.08-4.52,2.79.27,5.55.88,8.32,1.33,1.72.28,3.94,1.51,4.88-.59s-1.41-3.12-2.75-4.21c-5.42-4.44-12-7-18-10.42a64.76,64.76,0,0,1,25.11,4.89c7,3,8.86,9.85,9,17,.27,13.5-1.64,26.82-3.59,40.1-3,20.5-6.6,40.91-9.64,61.4-.77,5.18-4.51,2.35-6.8,3.34l-20.32,0c-2.73.12-3.1-1.34-2.94-3.74q2-30.72,3.83-61.45c.12-2,1.39-4.17-.59-6,1.48-5.07,1.41-10.34,1.93-15.54.4-4-1.08-5.79-5.31-5.43-9.47.81-19,1.4-28.46,2.08Z" class="cls-4" transform="translate(-100 -186.65)"/><path d="M494.49,674.61c-3.12.19-6.23.23-9.36.65a16.53,16.53,0,0,1-12.95-3.81c-4-3.24-7.9-6.52-11.85-9.78L446,646.31c-.87-.93-1.57-2.16-3.17-1.84-2.34-6.21-6.09-11.69-9.19-17.51-9.9-18.6-16.58-38.15-17.69-59.36-.08-1.57-.58-3.35.92-4.67,13.68,22.48,33.28,39.27,53.37,55.59,8.87,7.21,17.94,14.15,26.28,22,6.69,6.28,12.09,13,7.91,23-.47,1.11,0,2.6,0,3.92A24.38,24.38,0,0,0,494.49,674.61Z" class="cls-5" transform="translate(-100 -186.65)"/><path d="M473.79,709.5c9.49-.68,19-1.27,28.46-2.08,4.23-.36,5.71,1.42,5.31,5.43-.52,5.2-.45,10.47-1.93,15.54C495.06,748.19,484.46,768,474,787.82c-1,2-2,2.11-3.82,1.4a34,34,0,0,0-4.28-1.1,88.56,88.56,0,0,0-16.73-6.29c-3.49-1-4.31-2.68-2.6-6.3,3.1-6.54,5.54-13.38,8.25-20.1q9.27-21.52,18.51-43.08A11.48,11.48,0,0,0,473.79,709.5Z" class="cls-6" transform="translate(-100 -186.65)"/><path d="M391,531.17c-6.68-.08-10-4.53-12.48-9.83-2.08-4.38-2.79-9.12-2.8-14.67-3.46,1.49-5.39,3.93-7.59,5.94-3.9,3.58-7.53,7.5-12.36,9.92-6.18,3.09-12.25,2.56-16.67-1.46-5.49-5-7.86-14.38-5.22-21,2.48-6.28,7.62-8.49,13.86-8.47,9.14,0,18.23.57,26.79,4.32,1.23.53,2.65,1.77,3.6-.57,4-9.73,12.56-11.41,21.57-12.18,4.15-.36,8.08.23,9.58-5.71,1.05-4.17,5.58-5.9,10.14-5.56a10.3,10.3,0,0,1,9.18,6.61c2,4.82.77,9.07-2.93,12.66-3.48,3-7.9,3.36-12.07,3.84-4.58.54-7.32,1.44-5.93,7,.69,2.8,0,5.55-4.44,4.19-2.67-.81-4.9,1.11-5.85,3.58-1.12,2.91-1.2,6.56,1.47,8.25,5,3.18,2.06,5.47-.15,8C396.6,528.47,394.29,530.59,391,531.17Z" class="cls-7" transform="translate(-100 -186.65)"/><path d="M391,531.17c3.31-.58,5.62-2.7,7.7-5.11,2.21-2.57,5.18-4.86.15-8-2.67-1.69-2.59-5.34-1.47-8.25.95-2.47,3.18-4.39,5.85-3.58,4.48,1.36,5.13-1.39,4.44-4.19-1.39-5.59,1.35-6.49,5.93-7,4.17-.48,8.59-.88,12.07-3.84,3.28,8.67,5.48,17.53,5.08,26.91a55.72,55.72,0,0,1-1.63,11.71c-2.12,8.17-4.21,9.44-12.29,7.58a20.06,20.06,0,0,0-2.92-.26c-5.31-1.87-10.82-.66-16.23-1.07-2.3-.18-4.65.16-6.8-1Z" class="cls-8" transform="translate(-100 -186.65)"/><path d="M454.83,818.19c-4.37-4.42-10.26-6.44-15.4-9.65-5.93-3.7-6.45-4.32-2.9-10.19,2.05-3.38,3.88-7.63,9.16-7.05,3.87,7.7,10.52,9.75,16,4.92,5,1.44,6.44,6.35,9.17,9.85,5.77,7.4,10.39,15.7,18.35,21.25,2.19,1.53,2,4,.51,6.21s-3.21,2.22-5.44.9c-7.67-4.55-15.43-9-23.15-13.42C459.11,819.86,457.22,818.46,454.83,818.19Z" class="cls-9" transform="translate(-100 -186.65)"/><path d="M522.84,815.16c7.92,2,14.75,6.54,22.32,9.35,5.2,1.93,9.9,5.22,15.93,4.74,3.5-.27,3.64,2.25,3.8,5.34.2,4.09-2.51,2.43-3.89,2.44-17.72.12-35.44,0-53.16.15-3.56,0-5.49-.67-5.65-4.68-.18-4.55-.42-8.88,4.18-11.6,1.24.41,2.49.85,3.74,1.24C517,824.3,521.07,822.06,522.84,815.16Z" class="cls-9" transform="translate(-100 -186.65)"/><path d="M322.4,703.62c-3.65,7.35-1.39,14.15,1.85,20.9.67,1.38,2.2,3.15.36,4.43-1.56,1.07-3.12-.33-4.43-1.36-6.77-5.35-7.23-5.44-14.69-1.13-3.87,2.24-7.59,4.76-12.2,5.26l-1.47-.2c-3.18-.36-6.84-.77-8-4-1.3-3.77,3-4.56,5-6.5,1.54-1.48,3.24-2.8,4.86-4.2,5.38-4,11.47-7.27,13.63-14.31.38-1,.77-1.92,1.16-2.88Z" class="cls-10" transform="translate(-100 -186.65)"/><path d="M494.49,674.61a24.38,24.38,0,0,1,9.93-7.14c2.65,1.41,4.06,4.49,7.15,5.29,6,3.46,12.55,6,18,10.42,1.34,1.09,3.66,2.17,2.75,4.21s-3.16.87-4.88.59c-2.77-.45-5.53-1.06-8.32-1.33-3.2-.31-5.38.61-4.08,4.52.48,1.47,1,3.12-.76,3.94-1.49.69-2.39-.82-3.23-1.74a54.43,54.43,0,0,1-4.06-5C503.34,683.27,500.4,677.59,494.49,674.61Z" class="cls-11" transform="translate(-100 -186.65)"/><path d="M522.84,815.16c-1.77,6.9-5.85,9.14-12.73,7-1.25-.39-2.5-.83-3.74-1.24-1.13-7.08-.48-14.24-1-21.35l20.32,0Q524.24,807.35,522.84,815.16Z" class="cls-12" transform="translate(-100 -186.65)"/><path d="M461.66,796.22c-5.45,4.83-12.1,2.78-16-4.92l3.47-9.47a88.56,88.56,0,0,1,16.73,6.29Z" class="cls-8" transform="translate(-100 -186.65)"/><path d="M307.33,702.47c-2.16,7-8.25,10.34-13.63,14.31C294.88,708.71,299.45,703.91,307.33,702.47Z" class="cls-3" transform="translate(-100 -186.65)"/><path d="M362.84,701.53l-36.75-.07c1.52-1.23,3-2.59,4.59-3.68a23,23,0,0,0,9.59-13.37c1.86-6.66,4-13.24,6.4-19.85,1.57,6.28,1.69,12.77,3.65,18.9C352.65,690.76,355.13,698,362.84,701.53Z" class="cls-13" transform="translate(-100 -186.65)"/><path d="M442.85,644.47c1.6-.32,2.3.91,3.17,1.84l14.31,15.36-13-2.07A50.67,50.67,0,0,0,442.85,644.47Z" class="cls-14" transform="translate(-100 -186.65)"/><path d="M473.79,709.5a11.48,11.48,0,0,1-.47,2.85q-9.21,21.57-18.51,43.08c0-10.44,0-20.89,0-31.34,0-3.73.62-7.61-2-10.93-.11-.14.66-1,1-1.48Z" class="cls-15" transform="translate(-100 -186.65)"/><path d="M759.74,818.55c1.42.05,2.71.46,3.19,1.91,1.5,4.57.57,9.34.91,14,.13,1.74-1.84,2.07-3.42,2.07H704.21c-2,0-3.59-.53-3.8-2.92s.07-5.37,2.76-5.68c13-1.48,23.86-8.41,35.54-13.25a28,28,0,0,1,5.3-1.11c-.58,4.46,2.1,6.22,5.88,6.9C753.39,821.09,756.78,820.84,759.74,818.55Z" class="cls-9" transform="translate(-100 -186.65)"/><path d="M759.74,818.55c-3,2.29-6.35,2.54-9.85,1.92-3.78-.68-6.46-2.44-5.88-6.9.83-5.93,2.75-11.72,2.38-17.81l21.16,3.32Q763.65,808.82,759.74,818.55Z" class="cls-12" transform="translate(-100 -186.65)"/><rect width="198" height="143" x="699" y="505.55" class="cls-3" rx="12"/><path d="M788.47,655.78c3.08,2.9,6.51,5.57,7,10.25-6.81,3.4-10.71,10.59-17.42,14-2-2.23.52-4.43-.78-6.36,1.89-2.28.14-2.71-1.59-3.1-3.3-.76-6.58-.22-9.87.06-1.76.15-4.21.64-4.86-1.33-.71-2.14,1.71-2.89,3.24-3.74a94,94,0,0,1,17.4-7.17C783.9,657.67,786.17,656.66,788.47,655.78Z" class="cls-16" transform="translate(-100 -186.65)"/><path d="M830.52,679l-.72,1.31q-.19-.21-.36-.42a4,4,0,0,0,.1-.76,4.58,4.58,0,0,1,.86-.29Z" class="cls-17" transform="translate(-100 -186.65)"/><path d="M956.21,702.15c-2.23.12-3.14-1.44-4-3.11-2.46-5-5.26-9.91-7.27-15.11-1.56-4-3.76-5.78-8.05-5.13a50.63,50.63,0,0,1-6.41.18l-.12-.16c1.47-3.25,4.37-1.62,6.58-1.68,3.33-.09,5.15-.29,3.06-4.3-1.58-3-2.41-6.47-3.64-9.7q-3.87-10.21-7.79-20.41a189.89,189.89,0,0,1-10.12,35.74c-12.86.1-25.74,0-38.6.39-3.62.1-4.84-1.41-5.73-4.52-1.77-6.23-2.12-12.67-3.14-19a289.94,289.94,0,0,1,5.33-54.82c4.38-23.68,10.65-46.88,17.15-70,2.29-2.33,5.59,0,8-1.77,9.24.6,18-2.35,27-3.53,13.56-1.77,20.7,6.58,16.37,19.55-2,6-4.22,11.92-10.27,15.3-2.93,1.64-.28,3.2.51,4.36a199.12,199.12,0,0,1,21.09,39.34A226,226,0,0,1,971.6,674.3c.47,7.62.79,15.23.61,22.86,0,1.62.36,3.34-.74,4.81Z" class="cls-2" transform="translate(-100 -186.65)"/><path d="M871,655.34c1,6.33,1.37,12.77,3.14,19,.89,3.11,2.11,4.62,5.73,4.52,12.86-.34,25.74-.29,38.6-.39l10.06.55.89.85q.16.21.36.42c-2.6,11.41-10.3,18.19-20.59,22.55-7.86,3.34-16.31,4.35-24.59,6-2.11.43-4.22.84-7.24,1.43,5.29,2.89,10.48,3.83,15.24,5.81,1.76.74,4.07.52,5.09,2.69a146.27,146.27,0,0,0-6.09,18.81c-29.61.56-59.32,2.61-88.37-5.65-6.45-2.09-12.91-4.16-19.36-6.28a12.57,12.57,0,0,1-4.55-2.93c-7.07-6.55-8.68-14.91-8.29-24,.36-8.4,4-14.47,11.94-17.8,14.18-6,28.26-12.21,42.52-18,6.87-2.78,13.5-6.26,20.79-8Z" class="cls-17" transform="translate(-100 -186.65)"/><path d="M846.3,655c-7.29,1.7-13.92,5.18-20.79,8-14.26,5.78-28.34,12-42.52,18-7.9,3.33-11.58,9.4-11.94,17.8-.39,9.12,1.22,17.48,8.29,24a12.57,12.57,0,0,0,4.55,2.93c6.45,2.12,12.91,4.19,19.36,6.28-8.74,19.26-21.18,36.62-29.08,56.33a52.91,52.91,0,0,0-2.88,8c-.52,2.3-1.69,3-3.74,2.86l-21.16-3.32c-3.08-4-.16-8.1.25-12,1.4-13.18,3.49-26.3,5.57-39.4,3.16-19.84,6.12-39.76,13.12-58.73,2.1-5.69,5.42-10.5,11.9-12,1.3,1.93-1.24,4.13.78,6.36,6.71-3.43,10.61-10.62,17.43-14,2.47,1.36,5,1,7.68.58,13.77-2,26.28-7.56,38.61-13.62C843.3,653.54,845.67,652.23,846.3,655Z" class="cls-18" transform="translate(-100 -186.65)"/><path d="M841.73,653c-12.33,6.06-24.84,11.6-38.61,13.62-2.65.39-5.21.78-7.69-.58-.45-4.68-3.88-7.35-7-10.25-.44-1.62.64-2.41,1.72-3.24,18.2-13.78,31-32.09,42.86-51.2,9.44-15.21,18.08-30.93,28.55-45.49A126.89,126.89,0,0,1,877,537.63c0,1.66.07,3.33,0,5-1.15,19.14-7.1,37.06-13.85,54.79-6.37,16.73-14.22,33-17.51,50.74C845.16,650.46,843.43,651.7,841.73,653Z" class="cls-5" transform="translate(-100 -186.65)"/><path d="M841.73,653c1.7-1.29,3.43-2.53,3.86-4.85,3.29-17.79,11.14-34,17.51-50.74,6.75-17.73,12.7-35.65,13.85-54.79.1-1.65,0-3.32,0-5,0-4.13,2.64-5.61,6.2-6.15l10.32-1c-6.5,23.15-12.77,46.35-17.15,70A289.94,289.94,0,0,0,871,655.34L846.3,655C845.67,652.23,843.3,653.54,841.73,653Z" class="cls-9" transform="translate(-100 -186.65)"/><path d="M883.82,521.38c-4.75,5.07-11,6.23-17.47,6.41-5.21.15-4.25-3.85-4.16-7.1,1.5-.43,3.8.19,4.11-1.91.29-1.86-1.68-2.63-3.11-3.43a19.59,19.59,0,0,0-2.27-.92c-1.06-1.84-3.75-3.37-1.08-5.88,3.44,1.11,6.86,2.29,10.32,3.31,6.09,1.78,8.53.59,10.43-5.48a56.37,56.37,0,0,0,2-10.15c.88-7.28-3.6-12.32-11-12.49-2.72-.07-5.23-.48-7.41-2.19-2.67-6.07-2.37-7.21,3.79-8.8,7.66-2,15.14-3.29,23.43-1.49,16.57,3.6,20.71,25.84,10.55,37.42-1,1.11-2.16,2-3.25,3-3.87-1.68-7-3.73-4.76-8.77,1.19-2.69-.08-4.79-1.88-6.66-1.06-1.1-2.47-2.21-3.92-1.55-2.58,1.17-1.28,3.77-1.39,5.72C886.36,507.53,886.09,514.59,883.82,521.38Z" class="cls-19" transform="translate(-100 -186.65)"/><path d="M913.44,724a21.51,21.51,0,0,1,15.36,4.24c2.59,1.84,2.5,3.15,1.28,5.62-8,16.2-15.93,32.48-23.92,48.7-.93,1.88-1.2,4.69-4.79,3.24-3-1.22-4.55-3.22-3.47-6.11,5-13.29,1.75-27.28,3.73-40.8C911.31,738.65,916.35,732.29,913.44,724Z" class="cls-9" transform="translate(-100 -186.65)"/><path d="M956.21,702.15l15.26-.18c1.66,4.24,5.4,6.63,8.62,9.4,3.75,3.24,7.76,6.18,11.68,9.22,1.56,1.21,3.58,2.19,3.35,4.53-.25,2.61-2.62,3.17-4.58,4a12.43,12.43,0,0,1-10.12-.45c-3.16-1.42-6.15-3.21-9.2-4.86-6.14-3.29-7.67-3.1-12.65,1.54a14.58,14.58,0,0,1-2.31,1.84,2.53,2.53,0,0,1-3.22,0c-1-.92-.1-1.82.26-2.67.57-1.37,1.22-2.71,1.84-4.07C957.87,714.47,958.74,708.41,956.21,702.15Z" class="cls-20" transform="translate(-100 -186.65)"/><path d="M864.2,481.55c2.18,1.71,4.69,2.12,7.41,2.19,7.43.17,11.91,5.21,11,12.49a56.37,56.37,0,0,1-2,10.15c-1.9,6.07-4.34,7.26-10.43,5.48-3.46-1-6.88-2.2-10.32-3.31A71.6,71.6,0,0,1,864.2,481.55Z" class="cls-21" transform="translate(-100 -186.65)"/><path d="M883.82,521.38c2.27-6.79,2.54-13.85,2.95-20.92.11-1.95-1.19-4.55,1.39-5.72,1.45-.66,2.86.45,3.92,1.55,1.8,1.87,3.07,4,1.88,6.66-2.24,5,.89,7.09,4.76,8.77-.57,5.92,1.71,11.36,2.79,17-2.42,1.75-5.72-.56-8,1.77l-10.32,1C883.48,528.12,884.28,524.79,883.82,521.38Z" class="cls-21" transform="translate(-100 -186.65)"/><path d="M913.44,724c2.91,8.27-2.13,14.63-11.81,14.89l-10-1.32a146.27,146.27,0,0,1,6.09-18.81Z" class="cls-12" transform="translate(-100 -186.65)"/><path d="M860.92,514.43a19.59,19.59,0,0,1,2.27.92c1.43.8,3.4,1.57,3.11,3.43-.31,2.1-2.61,1.48-4.11,1.91C861.55,518.65,860.72,516.64,860.92,514.43Z" class="cls-22" transform="translate(-100 -186.65)"/><path d="M930.4,678.82a4.58,4.58,0,0,0-.86.29l-1-.09-10.06-.55a189.89,189.89,0,0,0,10.12-35.74q3.9,10.2,7.79,20.41c1.23,3.23,2.06,6.66,3.64,9.7,2.09,4,.27,4.21-3.06,4.3C934.77,677.2,931.87,675.57,930.4,678.82Z" class="cls-5" transform="translate(-100 -186.65)"/><path d="M828.55,679l1,.09a4,4,0,0,1-.1.76Z" class="cls-23" transform="translate(-100 -186.65)"/><line x1="1" x2="1079" y1="650.55" y2="650.55" class="cls-24"/><circle cx="540" cy="200.05" r="75.5" class="cls-25"/><circle cx="540" cy="200.05" r="68.82" class="cls-2"/><rect width="7.85" height="64.81" x="536.07" y="145.27" class="cls-26" rx="3.93"/><rect width="8.56" height="59.46" x="661.44" y="362.71" class="cls-26" rx="4.28" transform="translate(173.28 871.52) rotate(-90)"/></svg>